<mxfile host="app.diagrams.net" modified="2024-05-31T20:09:44.967Z" agent="Mozilla/5.0 (Windows NT 10.0; Win64; x64) AppleWebKit/537.36 (KHTML, like Gecko) Chrome/125.0.0.0 Safari/537.36" etag="bXI6jmW5qPmRWVGmlw_M" version="24.4.13" type="device">
  <diagram name="Page-1" id="4rgGhV19Bqo6P7CUq9J1">
    <mxGraphModel dx="1434" dy="738" grid="1" gridSize="10" guides="1" tooltips="1" connect="1" arrows="1" fold="1" page="1" pageScale="1" pageWidth="827" pageHeight="1169" math="0" shadow="0">
      <root>
        <mxCell id="0" />
        <mxCell id="1" parent="0" />
        <mxCell id="ew0agYDA0tfILV0PyHbA-1" value="" style="sketch=0;pointerEvents=1;shadow=0;dashed=0;html=1;strokeColor=none;fillColor=#505050;labelPosition=center;verticalLabelPosition=bottom;verticalAlign=top;outlineConnect=0;align=center;shape=mxgraph.office.concepts.folder;" vertex="1" parent="1">
          <mxGeometry x="180" y="100" width="70" height="60" as="geometry" />
        </mxCell>
        <mxCell id="ew0agYDA0tfILV0PyHbA-2" value="" style="sketch=0;pointerEvents=1;shadow=0;dashed=0;html=1;strokeColor=none;fillColor=#505050;labelPosition=center;verticalLabelPosition=bottom;verticalAlign=top;outlineConnect=0;align=center;shape=mxgraph.office.concepts.folder;" vertex="1" parent="1">
          <mxGeometry x="380" y="520" width="70" height="60" as="geometry" />
        </mxCell>
        <mxCell id="ew0agYDA0tfILV0PyHbA-3" value="Events" style="text;html=1;align=center;verticalAlign=middle;whiteSpace=wrap;rounded=0;" vertex="1" parent="1">
          <mxGeometry x="110" y="115" width="60" height="30" as="geometry" />
        </mxCell>
        <mxCell id="ew0agYDA0tfILV0PyHbA-4" value="Matches" style="text;html=1;align=center;verticalAlign=middle;whiteSpace=wrap;rounded=0;" vertex="1" parent="1">
          <mxGeometry x="310" y="535" width="60" height="30" as="geometry" />
        </mxCell>
        <mxCell id="ew0agYDA0tfILV0PyHbA-5" value="" style="endArrow=classic;html=1;rounded=0;" edge="1" parent="1" source="ew0agYDA0tfILV0PyHbA-1">
          <mxGeometry width="50" height="50" relative="1" as="geometry">
            <mxPoint x="420" y="90" as="sourcePoint" />
            <mxPoint x="360" y="130" as="targetPoint" />
          </mxGeometry>
        </mxCell>
        <mxCell id="ew0agYDA0tfILV0PyHbA-6" value="" style="endArrow=classic;html=1;rounded=0;" edge="1" parent="1">
          <mxGeometry width="50" height="50" relative="1" as="geometry">
            <mxPoint x="200" y="270" as="sourcePoint" />
            <mxPoint x="360" y="260" as="targetPoint" />
          </mxGeometry>
        </mxCell>
        <mxCell id="ew0agYDA0tfILV0PyHbA-7" value="Toutes les actions pour chaque match (à la suite)&amp;nbsp;" style="text;html=1;align=center;verticalAlign=middle;whiteSpace=wrap;rounded=0;" vertex="1" parent="1">
          <mxGeometry x="360" y="100" width="156" height="65" as="geometry" />
        </mxCell>
        <mxCell id="ew0agYDA0tfILV0PyHbA-8" value="Résultats de chaque match, compétition et saison" style="text;html=1;align=center;verticalAlign=middle;whiteSpace=wrap;rounded=0;" vertex="1" parent="1">
          <mxGeometry x="370" y="227.5" width="156" height="65" as="geometry" />
        </mxCell>
        <mxCell id="ew0agYDA0tfILV0PyHbA-11" value="" style="sketch=0;pointerEvents=1;shadow=0;dashed=0;html=1;strokeColor=none;fillColor=#505050;labelPosition=center;verticalLabelPosition=bottom;verticalAlign=top;outlineConnect=0;align=center;shape=mxgraph.office.concepts.folder;" vertex="1" parent="1">
          <mxGeometry x="215" y="350" width="70" height="60" as="geometry" />
        </mxCell>
        <mxCell id="ew0agYDA0tfILV0PyHbA-12" value="Events" style="text;html=1;align=center;verticalAlign=middle;whiteSpace=wrap;rounded=0;" vertex="1" parent="1">
          <mxGeometry x="145" y="365" width="60" height="30" as="geometry" />
        </mxCell>
      </root>
    </mxGraphModel>
  </diagram>
</mxfile>
